# xmcd
#
# Track frame offsets: 
#        150
#        17316
#        39348
#        63060
#        82573
#        102437
#        117217
#        138105
#        168019
#        197992
#
# Disc length: 3065 seconds
#
# Revision: 0
# Processed by: cddbd v1.5.2PL0 Copyright (c) Steve Scherf et al.
# Submitted via: ExactAudioCopy v1.0b3
#
DISCID=670bf70a
DTITLE=Tinsley Ellis - Midnight Blue
DYEAR=2014
DGENRE=Blues
TTITLE0=If The River Keeps Rising
TTITLE1=Mouth Turn Dry
TTITLE2=Surrender
TTITLE3=It's Not Funny
TTITLE4=See No Harm
TTITLE5=The Only Thing
TTITLE6=Peace And Love
TTITLE7=Harder To Find
TTITLE8=That's My Story
TTITLE9=Kiss Of Death
EXTD=
EXTT0=
EXTT1=
EXTT2=
EXTT3=
EXTT4=
EXTT5=
EXTT6=
EXTT7=
EXTT8=
EXTT9=
PLAYORDER=
